C:\Users\r0593348\3dpredictsim\Results\Batchsim_tmt_linear\Pog_s1_tmt_bCst_d00_k1000_ig24_pas_GRF.mot
nRows=15
nColumns=19

name C:\Users\r0593348\3dpredictsim\Results\Batchsim_tmt_linear\Pog_s1_tmt_bCst_d00_k1000_ig24_pas_GRF.mot
datacolumns 19
datarows 15
range 0.0000000000 0.1547559644
endheader
time 	ground_force_vx	ground_force_vy	ground_force_vz	ground_force_px	ground_force_py	ground_force_pz	1_ground_force_vx	1_ground_force_vy	1_ground_force_vz	1_ground_force_px	1_ground_force_py	1_ground_force_pz	ground_torque_x	ground_torque_y	ground_torque_z	1_ground_torque_x	1_ground_torque_y	1_ground_torque_z
        0.0000000000	      -78.3987579517	       64.2870749212	       30.0301155408	        0.1672983589	        0.0000000000	        0.0380895622	       98.7935201954	      490.3594213067	       -3.8488310664	       -0.3169071317	        0.0000000000	       -0.0335831662	        0.0000000000	        0.0000000000	        0.0000000000	        0.0000000000	        0.0000000000	        0.0000000000	
        0.0110539975	     -124.3882078436	      141.9646421671	       74.9003808547	        0.1748682568	        0.0000000000	        0.0356859014	       80.3257024967	      408.1844326103	       -8.6213642165	       -0.3131471477	        0.0000000000	       -0.0324812269	        0.0000000000	        0.0000000000	        0.0000000000	        0.0000000000	        0.0000000000	        0.0000000000	
        0.0221079949	      -50.6600761334	      286.0365169432	       33.7402949267	        0.1808931377	        0.0000000000	        0.0332265234	       60.7843580388	      318.9173949036	       -9.4842883944	       -0.3073307730	        0.0000000000	       -0.0302811796	        0.0000000000	        0.0000000000	        0.0000000000	        0.0000000000	        0.0000000000	        0.0000000000	
        0.0331619924	      -45.7304023907	      455.5046788359	        4.0315706552	        0.1851853926	        0.0000000000	        0.0333745956	       31.3590214351	      213.1024016927	       -5.9288579411	       -0.2959963289	        0.0000000000	       -0.0250160223	        0.0000000000	        0.0000000000	        0.0000000000	        0.0000000000	        0.0000000000	        0.0000000000	
        0.0442159898	      -79.4549550229	      662.9618807973	       -7.1511319160	        0.1937208011	        0.0000000000	        0.0358977689	       11.0325941596	      139.1044077816	       -8.4823713366	       -0.2803192167	        0.0000000000	       -0.0167566341	        0.0000000000	        0.0000000000	        0.0000000000	        0.0000000000	        0.0000000000	        0.0000000000	
        0.0552699873	     -105.3106205152	      805.5781619200	      -12.8476793182	        0.1998866291	        0.0000000000	        0.0376789972	        1.5205908631	      111.5087818003	      -10.2427294519	       -0.2808374093	        0.0000000000	       -0.0171955727	        0.0000000000	        0.0000000000	        0.0000000000	        0.0000000000	        0.0000000000	        0.0000000000	
        0.0663239848	     -113.9832005227	      862.6554544577	      -14.1770657394	        0.2039739533	        0.0000000000	        0.0387318405	       -2.3119360430	       73.7081208911	       -9.4853593404	       -0.2803711361	        0.0000000000	       -0.0172517340	        0.0000000000	        0.0000000000	        0.0000000000	        0.0000000000	        0.0000000000	        0.0000000000	
        0.0773779822	     -110.7561015470	      863.3858732381	      -14.0705916585	        0.2071121297	        0.0000000000	        0.0393367338	       -8.3333224419	       30.7617107912	       -5.4894351963	       -0.2807020668	        0.0000000000	       -0.0171814835	        0.0000000000	        0.0000000000	        0.0000000000	        0.0000000000	        0.0000000000	        0.0000000000	
        0.0884319797	     -101.7573484757	      842.6824305493	      -14.2396454361	        0.2102411818	        0.0000000000	        0.0396335747	        0.1172850230	       -0.1177412291	        0.0031140844	        0.0000000000	        0.0000000000	        0.0000000000	        0.0000000000	        0.0000000000	        0.0000000000	        0.0000000000	        0.0000000000	        0.0000000000	
        0.0994859771	      -89.3743277694	      809.1684746583	      -14.8858761829	        0.2135002355	        0.0000000000	        0.0397445461	        0.0001209587	       -0.0000998590	       -0.0000067443	        0.0000000000	        0.0000000000	        0.0000000000	        0.0000000000	        0.0000000000	        0.0000000000	        0.0000000000	        0.0000000000	        0.0000000000	
        0.1105399746	      -77.5263071125	      771.1990140309	      -15.2030812770	        0.2171797058	        0.0000000000	        0.0397672825	        0.0000416564	       -0.0000299276	       -0.0000031038	        0.0000000000	        0.0000000000	        0.0000000000	        0.0000000000	        0.0000000000	        0.0000000000	        0.0000000000	        0.0000000000	        0.0000000000	
        0.1215939720	      -67.4739047258	      736.8439148274	      -15.2727823704	        0.2214421709	        0.0000000000	        0.0396727221	        0.0003600047	       -0.0002317570	       -0.0000300959	        0.0000000000	        0.0000000000	        0.0000000000	        0.0000000000	        0.0000000000	        0.0000000000	        0.0000000000	        0.0000000000	        0.0000000000	
        0.1326479695	      -57.6161921327	      703.9272640100	      -15.7271181380	        0.2256838336	        0.0000000000	        0.0395675629	        0.0054242965	       -0.0031998710	       -0.0004816612	        0.0000000000	        0.0000000000	        0.0000000000	        0.0000000000	        0.0000000000	        0.0000000000	        0.0000000000	        0.0000000000	        0.0000000000	
        0.1437019670	      -47.9372304433	      672.9154070416	      -16.2345827491	        0.2297475719	        0.0000000000	        0.0395228018	       -0.0238275208	        0.0130759477	        0.0022048297	        0.0000000000	        0.0000000000	        0.0000000000	        0.0000000000	        0.0000000000	        0.0000000000	        0.0000000000	        0.0000000000	        0.0000000000	
        0.1547559644	      -39.2364670157	      645.9643936868	      -16.7750941516	        0.2338522000	        0.0000000000	        0.0395336750	       -0.0169353455	        0.0087390360	        0.0016203568	        0.0000000000	        0.0000000000	        0.0000000000	        0.0000000000	        0.0000000000	        0.0000000000	        0.0000000000	        0.0000000000	        0.0000000000	
